<mxfile host="app.diagrams.net" agent="Mozilla/5.0 (Windows NT 10.0; Win64; x64) AppleWebKit/537.36 (KHTML, like Gecko) Chrome/127.0.0.0 Safari/537.36" version="24.7.5">
  <diagram id="C5RBs43oDa-KdzZeNtuy" name="Page-1">
    <mxGraphModel dx="1154" dy="514" grid="1" gridSize="10" guides="1" tooltips="1" connect="1" arrows="1" fold="1" page="1" pageScale="1" pageWidth="827" pageHeight="1169" math="0" shadow="0">
      <root>
        <mxCell id="WIyWlLk6GJQsqaUBKTNV-0" />
        <mxCell id="WIyWlLk6GJQsqaUBKTNV-1" parent="WIyWlLk6GJQsqaUBKTNV-0" />
        <mxCell id="rSI8M0dQ6BmZKImt5Zvn-2" value="" style="edgeStyle=orthogonalEdgeStyle;rounded=0;orthogonalLoop=1;jettySize=auto;html=1;" edge="1" parent="WIyWlLk6GJQsqaUBKTNV-1" source="rSI8M0dQ6BmZKImt5Zvn-0" target="rSI8M0dQ6BmZKImt5Zvn-1">
          <mxGeometry relative="1" as="geometry" />
        </mxCell>
        <mxCell id="rSI8M0dQ6BmZKImt5Zvn-0" value="Start" style="strokeWidth=2;html=1;shape=mxgraph.flowchart.terminator;whiteSpace=wrap;" vertex="1" parent="WIyWlLk6GJQsqaUBKTNV-1">
          <mxGeometry x="364" y="10" width="100" height="40" as="geometry" />
        </mxCell>
        <mxCell id="rSI8M0dQ6BmZKImt5Zvn-4" value="" style="edgeStyle=orthogonalEdgeStyle;rounded=0;orthogonalLoop=1;jettySize=auto;html=1;" edge="1" parent="WIyWlLk6GJQsqaUBKTNV-1" source="rSI8M0dQ6BmZKImt5Zvn-1" target="rSI8M0dQ6BmZKImt5Zvn-3">
          <mxGeometry relative="1" as="geometry" />
        </mxCell>
        <mxCell id="rSI8M0dQ6BmZKImt5Zvn-1" value="Home Page" style="whiteSpace=wrap;html=1;strokeWidth=2;" vertex="1" parent="WIyWlLk6GJQsqaUBKTNV-1">
          <mxGeometry x="354" y="80" width="120" height="40" as="geometry" />
        </mxCell>
        <mxCell id="rSI8M0dQ6BmZKImt5Zvn-6" value="" style="edgeStyle=orthogonalEdgeStyle;rounded=0;orthogonalLoop=1;jettySize=auto;html=1;" edge="1" parent="WIyWlLk6GJQsqaUBKTNV-1" source="rSI8M0dQ6BmZKImt5Zvn-3" target="rSI8M0dQ6BmZKImt5Zvn-5">
          <mxGeometry relative="1" as="geometry" />
        </mxCell>
        <mxCell id="rSI8M0dQ6BmZKImt5Zvn-3" value="Authentication" style="whiteSpace=wrap;html=1;strokeWidth=2;" vertex="1" parent="WIyWlLk6GJQsqaUBKTNV-1">
          <mxGeometry x="354" y="150" width="120" height="40" as="geometry" />
        </mxCell>
        <mxCell id="rSI8M0dQ6BmZKImt5Zvn-8" value="" style="edgeStyle=orthogonalEdgeStyle;rounded=0;orthogonalLoop=1;jettySize=auto;html=1;" edge="1" parent="WIyWlLk6GJQsqaUBKTNV-1" source="rSI8M0dQ6BmZKImt5Zvn-5" target="rSI8M0dQ6BmZKImt5Zvn-7">
          <mxGeometry relative="1" as="geometry" />
        </mxCell>
        <mxCell id="rSI8M0dQ6BmZKImt5Zvn-27" value="" style="edgeStyle=orthogonalEdgeStyle;rounded=0;orthogonalLoop=1;jettySize=auto;html=1;" edge="1" parent="WIyWlLk6GJQsqaUBKTNV-1" source="rSI8M0dQ6BmZKImt5Zvn-5" target="rSI8M0dQ6BmZKImt5Zvn-26">
          <mxGeometry relative="1" as="geometry" />
        </mxCell>
        <mxCell id="rSI8M0dQ6BmZKImt5Zvn-5" value="Registered&amp;nbsp;&lt;div&gt;User&lt;/div&gt;" style="rhombus;whiteSpace=wrap;html=1;strokeWidth=2;" vertex="1" parent="WIyWlLk6GJQsqaUBKTNV-1">
          <mxGeometry x="366" y="220" width="96" height="90" as="geometry" />
        </mxCell>
        <mxCell id="rSI8M0dQ6BmZKImt5Zvn-10" value="" style="edgeStyle=orthogonalEdgeStyle;rounded=0;orthogonalLoop=1;jettySize=auto;html=1;" edge="1" parent="WIyWlLk6GJQsqaUBKTNV-1" source="rSI8M0dQ6BmZKImt5Zvn-7" target="rSI8M0dQ6BmZKImt5Zvn-9">
          <mxGeometry relative="1" as="geometry" />
        </mxCell>
        <mxCell id="rSI8M0dQ6BmZKImt5Zvn-7" value="Register" style="whiteSpace=wrap;html=1;strokeWidth=2;" vertex="1" parent="WIyWlLk6GJQsqaUBKTNV-1">
          <mxGeometry x="500" y="247.5" width="80" height="35" as="geometry" />
        </mxCell>
        <mxCell id="rSI8M0dQ6BmZKImt5Zvn-12" value="" style="edgeStyle=orthogonalEdgeStyle;rounded=0;orthogonalLoop=1;jettySize=auto;html=1;" edge="1" parent="WIyWlLk6GJQsqaUBKTNV-1" source="rSI8M0dQ6BmZKImt5Zvn-9" target="rSI8M0dQ6BmZKImt5Zvn-11">
          <mxGeometry relative="1" as="geometry" />
        </mxCell>
        <mxCell id="rSI8M0dQ6BmZKImt5Zvn-9" value="Fill Out Information" style="whiteSpace=wrap;html=1;strokeWidth=2;" vertex="1" parent="WIyWlLk6GJQsqaUBKTNV-1">
          <mxGeometry x="610" y="247" width="120" height="35" as="geometry" />
        </mxCell>
        <mxCell id="rSI8M0dQ6BmZKImt5Zvn-25" style="edgeStyle=orthogonalEdgeStyle;rounded=0;orthogonalLoop=1;jettySize=auto;html=1;entryX=1;entryY=1;entryDx=0;entryDy=0;" edge="1" parent="WIyWlLk6GJQsqaUBKTNV-1" source="rSI8M0dQ6BmZKImt5Zvn-11" target="rSI8M0dQ6BmZKImt5Zvn-5">
          <mxGeometry relative="1" as="geometry">
            <mxPoint x="769.9999999999998" y="200" as="targetPoint" />
          </mxGeometry>
        </mxCell>
        <mxCell id="rSI8M0dQ6BmZKImt5Zvn-11" value="Submit" style="whiteSpace=wrap;html=1;strokeWidth=2;" vertex="1" parent="WIyWlLk6GJQsqaUBKTNV-1">
          <mxGeometry x="625" y="340" width="90" height="30.5" as="geometry" />
        </mxCell>
        <mxCell id="rSI8M0dQ6BmZKImt5Zvn-29" value="" style="edgeStyle=orthogonalEdgeStyle;rounded=0;orthogonalLoop=1;jettySize=auto;html=1;" edge="1" parent="WIyWlLk6GJQsqaUBKTNV-1" source="rSI8M0dQ6BmZKImt5Zvn-26" target="rSI8M0dQ6BmZKImt5Zvn-28">
          <mxGeometry relative="1" as="geometry" />
        </mxCell>
        <mxCell id="rSI8M0dQ6BmZKImt5Zvn-31" value="" style="edgeStyle=orthogonalEdgeStyle;rounded=0;orthogonalLoop=1;jettySize=auto;html=1;" edge="1" parent="WIyWlLk6GJQsqaUBKTNV-1" source="rSI8M0dQ6BmZKImt5Zvn-26" target="rSI8M0dQ6BmZKImt5Zvn-30">
          <mxGeometry relative="1" as="geometry" />
        </mxCell>
        <mxCell id="rSI8M0dQ6BmZKImt5Zvn-33" value="" style="edgeStyle=orthogonalEdgeStyle;rounded=0;orthogonalLoop=1;jettySize=auto;html=1;" edge="1" parent="WIyWlLk6GJQsqaUBKTNV-1" source="rSI8M0dQ6BmZKImt5Zvn-26" target="rSI8M0dQ6BmZKImt5Zvn-32">
          <mxGeometry relative="1" as="geometry" />
        </mxCell>
        <mxCell id="rSI8M0dQ6BmZKImt5Zvn-26" value="Login" style="strokeWidth=2;html=1;shape=mxgraph.flowchart.merge_or_storage;whiteSpace=wrap;" vertex="1" parent="WIyWlLk6GJQsqaUBKTNV-1">
          <mxGeometry x="366" y="370.5" width="95" height="60" as="geometry" />
        </mxCell>
        <mxCell id="rSI8M0dQ6BmZKImt5Zvn-28" value="Donor" style="whiteSpace=wrap;html=1;strokeWidth=2;" vertex="1" parent="WIyWlLk6GJQsqaUBKTNV-1">
          <mxGeometry x="353.5" y="510.5" width="120" height="60" as="geometry" />
        </mxCell>
        <mxCell id="rSI8M0dQ6BmZKImt5Zvn-35" value="" style="edgeStyle=orthogonalEdgeStyle;rounded=0;orthogonalLoop=1;jettySize=auto;html=1;" edge="1" parent="WIyWlLk6GJQsqaUBKTNV-1" source="rSI8M0dQ6BmZKImt5Zvn-30" target="rSI8M0dQ6BmZKImt5Zvn-34">
          <mxGeometry relative="1" as="geometry" />
        </mxCell>
        <mxCell id="rSI8M0dQ6BmZKImt5Zvn-30" value="Organization" style="whiteSpace=wrap;html=1;strokeWidth=2;" vertex="1" parent="WIyWlLk6GJQsqaUBKTNV-1">
          <mxGeometry x="528.5" y="430.5" width="120" height="60" as="geometry" />
        </mxCell>
        <mxCell id="rSI8M0dQ6BmZKImt5Zvn-32" value="Hospitals" style="whiteSpace=wrap;html=1;strokeWidth=2;" vertex="1" parent="WIyWlLk6GJQsqaUBKTNV-1">
          <mxGeometry x="170" y="430.5" width="120" height="60" as="geometry" />
        </mxCell>
        <mxCell id="rSI8M0dQ6BmZKImt5Zvn-37" value="" style="edgeStyle=orthogonalEdgeStyle;rounded=0;orthogonalLoop=1;jettySize=auto;html=1;" edge="1" parent="WIyWlLk6GJQsqaUBKTNV-1" source="rSI8M0dQ6BmZKImt5Zvn-34" target="rSI8M0dQ6BmZKImt5Zvn-36">
          <mxGeometry relative="1" as="geometry" />
        </mxCell>
        <mxCell id="rSI8M0dQ6BmZKImt5Zvn-34" value="Inventory&amp;nbsp;" style="whiteSpace=wrap;html=1;strokeWidth=2;" vertex="1" parent="WIyWlLk6GJQsqaUBKTNV-1">
          <mxGeometry x="528.5" y="525" width="120" height="45" as="geometry" />
        </mxCell>
        <mxCell id="rSI8M0dQ6BmZKImt5Zvn-39" value="" style="edgeStyle=orthogonalEdgeStyle;rounded=0;orthogonalLoop=1;jettySize=auto;html=1;" edge="1" parent="WIyWlLk6GJQsqaUBKTNV-1" source="rSI8M0dQ6BmZKImt5Zvn-36" target="rSI8M0dQ6BmZKImt5Zvn-38">
          <mxGeometry relative="1" as="geometry" />
        </mxCell>
        <mxCell id="rSI8M0dQ6BmZKImt5Zvn-36" value="" style="whiteSpace=wrap;html=1;strokeWidth=2;" vertex="1" parent="WIyWlLk6GJQsqaUBKTNV-1">
          <mxGeometry x="660" y="590" width="120" height="50" as="geometry" />
        </mxCell>
        <mxCell id="rSI8M0dQ6BmZKImt5Zvn-38" value="" style="whiteSpace=wrap;html=1;strokeWidth=2;" vertex="1" parent="WIyWlLk6GJQsqaUBKTNV-1">
          <mxGeometry x="660" y="660" width="120" height="50" as="geometry" />
        </mxCell>
      </root>
    </mxGraphModel>
  </diagram>
</mxfile>
